<?xml version="1.0" standalone="no"?>
<!DOCTYPE svg PUBLIC "-//W3C//DTD SVG 20010904//EN"
 "http://www.w3.org/TR/2001/REC-SVG-20010904/DTD/svg10.dtd">
<svg version="1.0" xmlns="http://www.w3.org/2000/svg"
 width="1140.000000pt" height="1138.000000pt" viewBox="0 0 1140.000000 1138.000000"
 preserveAspectRatio="xMidYMid meet">

<g transform="translate(0.000000,1138.000000) scale(0.100000,-0.100000)"
fill="#000000" stroke="none">
<path d="M5610 11169 c-483 -151 -675 -218 -1010 -351 -761 -301 -1435 -660
-2029 -1078 -90 -63 -173 -122 -185 -130 -162 -112 -529 -415 -751 -620 -92
-85 -393 -386 -475 -475 -241 -261 -505 -589 -708 -878 -139 -199 -255 -381
-263 -414 -5 -21 -12 -207 -16 -413 -20 -1204 153 -2222 570 -3360 113 -309
375 -882 521 -1138 20 -35 36 -66 36 -69 0 -9 225 -390 298 -506 211 -330 409
-611 622 -884 l64 -82 126 -45 c69 -24 199 -68 290 -96 91 -28 176 -55 190
-60 14 -5 106 -31 205 -59 475 -131 891 -218 1338 -280 526 -72 588 -76 1307
-76 529 0 663 3 805 18 902 91 1639 262 2502 578 l91 34 69 90 c249 327 511
709 721 1052 62 101 112 184 112 186 0 2 32 60 71 128 96 167 265 494 337 654
33 72 71 155 85 185 38 82 126 296 147 354 10 28 28 76 40 106 71 181 195 565
249 767 152 573 239 1101 281 1693 11 159 12 1044 2 1180 -7 79 -10 90 -51
150 -153 224 -492 665 -667 867 -42 48 -99 115 -128 148 -253 294 -739 770
-1036 1013 -58 47 -107 89 -110 92 -14 17 -397 308 -490 373 -165 115 -449
299 -590 382 -636 376 -1293 661 -2035 884 -152 45 -404 111 -423 110 -9 0
-60 -14 -112 -30z m256 -144 c215 -58 505 -146 639 -195 263 -94 428 -157 510
-194 17 -8 59 -26 95 -41 63 -26 86 -36 220 -97 115 -52 436 -215 567 -289
570 -318 1114 -705 1578 -1123 173 -156 186 -168 323 -301 407 -394 864 -933
1226 -1443 l87 -123 9 -172 c13 -227 13 -666 0 -897 -56 -1008 -248 -1874
-623 -2800 -89 -220 -145 -342 -289 -630 -145 -290 -170 -336 -383 -698 -6 -9
-17 -28 -26 -42 -9 -14 -47 -74 -85 -135 -75 -120 -298 -455 -348 -522 -17
-23 -58 -79 -91 -124 -185 -255 -216 -294 -255 -311 -173 -75 -811 -275 -1075
-338 -44 -10 -129 -30 -190 -45 -113 -27 -149 -34 -390 -80 -349 -66 -691
-108 -1110 -137 -260 -17 -841 -15 -1120 6 -445 32 -778 77 -1270 171 -202 39
-691 160 -830 205 -16 6 -75 23 -130 39 -55 16 -198 62 -317 101 l-218 73 -92
121 c-225 292 -535 746 -663 967 -219 380 -246 430 -371 679 -314 628 -553
1287 -707 1955 -39 169 -47 206 -67 315 -12 63 -25 135 -30 160 -5 25 -16 92
-25 150 -8 58 -20 134 -25 170 -6 36 -17 128 -25 205 -9 77 -17 156 -20 175
-2 19 -12 148 -21 285 -12 187 -15 359 -12 687 l3 437 148 218 c82 120 158
232 170 248 471 648 1050 1242 1692 1736 232 178 487 354 733 506 122 75 303
183 307 183 2 0 45 24 97 54 271 155 735 376 1086 517 70 28 159 63 197 79
205 83 923 324 981 329 6 1 69 -15 140 -34z"/>
<path d="M5645 10804 c-44 -14 -138 -44 -210 -66 -362 -113 -833 -290 -1155
-435 -25 -12 -67 -31 -95 -43 -160 -72 -559 -277 -735 -378 -904 -521 -1664
-1163 -2292 -1937 -63 -77 -134 -167 -158 -200 -25 -33 -47 -62 -51 -65 -11
-10 -154 -216 -263 -379 l-111 -166 0 -530 c0 -508 5 -627 36 -915 91 -853
285 -1606 618 -2403 133 -318 354 -749 567 -1103 171 -286 491 -752 677 -985
51 -65 76 -88 98 -93 17 -3 45 -12 62 -20 44 -20 380 -128 567 -183 284 -82
763 -195 948 -223 34 -6 81 -14 105 -19 147 -33 623 -91 922 -113 226 -16 902
-16 1130 0 861 62 1685 242 2505 546 91 34 132 64 178 131 4 6 63 87 132 180
114 156 424 614 495 731 214 357 276 469 429 779 130 263 148 302 223 480 140
329 276 727 358 1040 14 55 30 116 35 135 27 98 83 360 120 570 43 234 76 522
100 850 25 362 18 1127 -11 1183 -38 71 -433 600 -543 727 -17 20 -51 60 -76
90 -428 517 -1000 1059 -1520 1442 -208 153 -250 181 -530 363 -205 134 -633
366 -900 488 -41 19 -95 43 -120 55 -320 147 -755 304 -1140 411 -102 28 -198
55 -215 60 -67 21 -100 20 -180 -5z m275 -1094 l0 -50 -102 0 c-57 0 -120 -3
-141 -6 l-38 -7 3 -46 3 -46 128 4 128 4 -3 -54 -3 -54 -122 -3 -123 -3 0 -64
0 -65 146 0 145 0 -3 -47 -3 -48 -201 -3 -201 -2 -7 259 c-4 143 -5 265 -1
271 4 6 77 10 201 10 l194 0 0 -50z m-549 38 c4 -11 47 -429 51 -493 l3 -40
-54 -5 c-61 -7 -38 -27 -197 175 l-86 110 6 -105 c4 -58 11 -125 16 -150 5
-25 5 -48 2 -52 -4 -4 -29 -8 -57 -10 l-50 -3 -6 60 c-32 314 -40 395 -42 430
l-2 39 50 9 c54 9 55 8 110 -68 11 -16 49 -65 84 -109 34 -45 65 -86 68 -93 2
-6 10 -14 17 -16 12 -5 10 27 -13 218 -5 44 -7 83 -3 87 4 4 23 8 42 11 19 2
41 5 48 5 6 1 12 1 13 0z m998 -19 c62 -13 130 -74 148 -132 13 -43 14 -42
-60 -52 -46 -6 -48 -5 -58 24 -14 40 -85 76 -133 67 -78 -15 -117 -76 -117
-187 -1 -132 73 -186 203 -147 36 10 39 14 36 42 -3 29 -6 31 -53 36 l-50 5
-3 49 -3 49 112 -7 c62 -4 117 -10 122 -13 8 -5 1 -168 -9 -204 -3 -10 -30
-30 -62 -45 -49 -24 -69 -28 -142 -28 -100 0 -160 23 -211 82 -49 55 -63 97
-63 187 1 206 140 318 343 274z m420 -80 c110 -24 258 -61 280 -70 20 -8 22
-14 16 -47 -3 -20 -10 -41 -15 -46 -5 -5 -56 3 -117 18 -59 15 -118 29 -130
31 -18 4 -24 -2 -37 -40 -15 -45 -15 -46 7 -54 21 -9 98 -30 185 -51 l44 -11
-7 -42 c-4 -23 -11 -45 -16 -48 -5 -3 -58 7 -117 22 -59 15 -112 28 -118 28
-15 1 -33 -44 -36 -88 l-3 -35 130 -33 c71 -18 133 -37 137 -41 4 -4 1 -25 -7
-47 -10 -28 -19 -40 -32 -38 -15 1 -363 84 -370 88 -5 3 96 422 118 493 8 24
15 32 27 27 8 -3 36 -10 61 -16z m-2189 -24 c0 -3 -27 -60 -61 -126 -33 -66
-59 -124 -57 -128 2 -5 46 -43 98 -87 52 -43 110 -94 130 -111 19 -18 38 -33
43 -33 4 0 7 -6 7 -14 0 -8 -25 -20 -66 -30 l-65 -17 -98 91 c-54 49 -102 90
-107 90 -5 0 -19 -22 -32 -50 -17 -36 -20 -54 -13 -67 16 -29 39 -123 32 -127
-22 -14 -97 -34 -102 -28 -6 6 -40 112 -101 312 -11 36 -28 91 -39 123 -10 31
-19 61 -19 66 0 7 82 36 104 36 4 0 23 -46 40 -103 l33 -103 56 116 c31 63 57
119 57 124 0 17 33 36 89 52 66 20 71 21 71 14z m2730 -126 c52 -17 114 -40
137 -50 24 -11 46 -19 51 -19 17 0 63 -57 72 -90 23 -80 -39 -181 -119 -195
-42 -7 -48 -13 -32 -31 10 -9 61 -197 61 -222 0 -17 -57 -9 -100 13 -27 14
-28 18 -75 185 -17 64 -23 73 -52 89 -40 20 -47 13 -78 -80 -16 -49 -32 -94
-35 -99 -6 -10 -110 17 -110 28 0 8 25 82 114 337 31 88 56 161 56 162 0 7 20
1 110 -28z m-3294 -86 c8 -21 49 -121 90 -223 41 -102 79 -193 84 -202 6 -10
10 -22 10 -27 0 -8 -101 -55 -105 -49 -1 2 -32 77 -69 168 -72 178 -72 176
-110 264 -15 32 -25 60 -23 62 4 5 91 43 99 43 4 1 15 -16 24 -36z m-243 -90
c7 -16 62 -121 120 -234 116 -225 114 -214 44 -244 -44 -18 -33 -22 -197 80
-63 39 -125 77 -137 84 -21 11 -22 10 -13 -13 5 -14 36 -77 70 -139 46 -88 57
-117 47 -125 -18 -14 -78 -44 -82 -40 -11 11 -245 462 -245 471 0 3 22 17 48
30 l48 24 134 -83 c74 -46 145 -91 158 -100 13 -9 26 -13 29 -10 6 5 -8 33
-99 204 -22 41 -38 75 -36 77 13 12 75 45 85 45 6 0 18 -12 26 -27z m4021 -13
c25 -10 46 -24 46 -29 0 -9 -29 -72 -151 -330 -33 -68 -59 -127 -59 -131 0
-17 -28 -17 -68 1 -23 11 -42 26 -42 34 0 7 20 56 44 107 119 253 176 368 180
368 2 0 25 -9 50 -20z m493 -274 c9 -8 7 -24 -7 -66 -40 -121 -80 -253 -77
-256 4 -4 40 28 160 142 l87 83 60 -35 c32 -20 63 -41 69 -48 7 -8 -13 -48
-66 -131 -42 -66 -100 -160 -131 -210 -78 -127 -73 -124 -122 -91 -27 18 -40
33 -36 42 3 8 30 51 59 97 29 45 66 105 82 132 28 49 28 50 4 30 -13 -11 -71
-66 -129 -122 l-104 -102 -41 24 c-22 14 -41 33 -43 44 -2 11 18 81 43 156 25
75 44 142 42 148 -2 6 -33 -38 -70 -99 -37 -60 -77 -122 -90 -137 l-22 -28
-37 26 c-21 14 -38 31 -38 37 0 6 28 54 61 107 78 122 96 150 149 236 71 114
63 110 129 69 31 -20 61 -41 68 -48z m-4991 57 c-7 -23 -37 -176 -43 -224 -5
-41 -31 -24 208 -137 59 -28 110 -55 113 -60 7 -12 -23 -38 -75 -65 l-34 -19
-120 65 c-66 36 -123 63 -126 61 -4 -2 -10 -28 -13 -57 -7 -51 -5 -57 34 -116
23 -35 40 -64 38 -66 -12 -13 -80 -55 -88 -55 -9 0 -50 60 -134 195 -20 33
-64 102 -97 154 -32 51 -59 95 -59 97 0 6 79 54 89 54 5 0 35 -39 67 -87 l57
-88 23 115 c13 63 23 127 24 143 0 23 11 34 62 67 68 44 82 49 74 23z m3013
-370 c58 -235 80 -395 81 -579 l0 -150 93 -23 c215 -54 414 -126 615 -222 68
-32 127 -59 130 -59 3 0 28 26 56 57 41 45 126 118 271 231 9 7 65 42 110 69
11 7 52 29 92 50 l72 37 73 -69 c40 -39 140 -133 223 -210 82 -77 188 -176
235 -220 47 -44 110 -103 140 -132 30 -28 72 -66 93 -84 20 -17 37 -36 37 -43
0 -33 -237 -393 -330 -501 -33 -38 -60 -76 -60 -83 0 -7 18 -38 39 -70 67 -97
178 -307 238 -448 22 -52 93 -261 109 -324 l10 -35 119 -6 c173 -9 336 -40
476 -90 l56 -20 6 -197 c4 -108 10 -355 14 -549 l6 -352 -29 -6 c-16 -4 -42
-11 -58 -16 -109 -34 -368 -81 -522 -94 l-82 -7 -40 -122 c-22 -66 -48 -141
-58 -166 -47 -113 -179 -364 -239 -454 l-66 -98 58 -57 c119 -114 237 -275
325 -441 l45 -85 -231 -239 c-226 -233 -232 -238 -277 -243 -29 -3 -49 -1 -53
6 -4 6 -27 11 -51 11 l-44 0 -3 58 -3 57 -182 3 -182 2 -3 83 -3 82 -92 3 -92
3 -3 52 -3 52 -240 5 -240 5 -3 165 -2 166 92 61 c385 252 697 639 849 1052
93 254 120 402 126 681 5 211 1 261 -31 443 -58 320 -222 669 -442 938 -53 64
-234 248 -304 306 -103 87 -292 211 -435 285 -174 90 -448 184 -620 212 -75
13 -70 -2 -72 193 -2 98 -7 233 -13 300 -10 117 -12 125 -52 190 -66 110 -63
108 -114 67 l-43 -36 -6 29 c-4 15 -12 48 -20 73 -7 25 -16 61 -20 80 -3 19
-10 44 -14 55 -5 11 -16 56 -26 100 -33 153 -34 155 -82 155 -36 0 -43 -3 -47
-22 -3 -13 -14 -63 -25 -113 -37 -167 -42 -190 -57 -265 -22 -112 -19 -109
-72 -57 -26 26 -50 47 -54 47 -3 0 -8 -8 -12 -17 -3 -10 -10 -25 -16 -33 -5
-8 -25 -43 -44 -77 l-34 -62 -10 -248 c-5 -136 -9 -268 -8 -293 l1 -45 -50 -8
c-297 -51 -604 -168 -864 -330 -105 -65 -115 -72 -240 -174 -432 -350 -721
-868 -781 -1398 -13 -118 -13 -371 1 -492 30 -275 141 -598 286 -833 126 -204
328 -436 503 -575 41 -33 129 -96 195 -140 l120 -80 -3 -40 c-2 -22 -5 -91 -8
-152 l-5 -113 -222 -2 -222 -3 -3 -53 -3 -52 -125 0 -124 0 0 -85 0 -85 -182
-2 -183 -3 -3 -56 c-3 -55 -4 -57 -35 -62 -18 -3 -44 -9 -59 -12 -15 -4 -38
-5 -50 -2 -24 6 -471 447 -476 470 -3 15 130 220 222 342 33 44 93 114 133
156 l74 76 -76 114 c-123 186 -273 506 -324 694 l-16 60 -60 2 c-116 4 -271
25 -375 49 -106 25 -245 70 -267 87 -9 7 -11 124 -6 505 3 274 8 519 12 547
l6 50 80 18 c159 34 372 67 482 74 l113 6 41 130 c71 226 188 475 305 653 30
45 54 85 54 89 0 4 -36 45 -80 93 -94 100 -195 246 -267 388 l-52 101 287 279
c436 425 493 479 509 482 12 3 206 -113 283 -170 104 -77 205 -160 262 -216
l67 -66 128 61 c211 101 377 162 593 218 l125 32 -3 129 c-3 133 15 315 44
429 22 89 66 228 77 243 7 9 132 12 562 12 l552 0 22 -87z m-3511 -66 c-18
-16 -66 -57 -105 -90 -40 -34 -73 -64 -73 -67 1 -3 16 -22 34 -42 l33 -38 43
38 c24 20 68 59 97 86 l53 49 34 -39 c31 -36 33 -40 18 -54 -10 -8 -51 -44
-92 -79 -41 -35 -77 -68 -78 -73 -5 -10 65 -98 78 -98 5 0 15 6 22 13 13 12
144 125 181 156 16 13 20 12 47 -20 16 -19 29 -36 30 -39 0 -6 -287 -253 -299
-258 -5 -2 -37 30 -71 70 -73 85 -177 203 -237 269 -24 25 -43 51 -43 57 0 10
14 22 120 112 30 25 79 68 110 97 l55 52 38 -37 38 -37 -33 -28z m6086 -61
l39 -34 -16 -53 c-33 -112 -159 -474 -168 -484 -6 -6 -24 5 -50 31 l-41 41 18
62 c17 61 17 62 -4 77 -12 8 -27 20 -34 27 -7 7 -32 27 -56 45 l-42 34 -50
-31 c-28 -17 -54 -31 -58 -31 -12 1 -82 65 -82 75 0 10 10 16 180 108 52 28
140 77 195 108 55 32 107 58 115 58 8 0 33 -15 54 -33z m-3150 -223 c4 -21 12
-51 17 -68 26 -82 68 -289 73 -360 4 -44 13 -368 21 -720 8 -352 19 -786 25
-965 10 -288 40 -1509 40 -1600 l0 -36 -201 1 -200 0 6 225 c3 124 11 340 16
480 5 140 18 530 29 865 11 336 24 743 30 905 5 162 14 432 20 600 l10 305 45
204 c25 112 45 206 45 208 0 2 4 2 9 -1 5 -3 12 -23 15 -43z m-3329 -3 l29
-30 -35 -37 c-55 -59 -59 -64 -59 -71 0 -4 21 -25 47 -47 49 -42 102 -88 194
-167 30 -26 62 -53 71 -60 15 -12 13 -17 -22 -57 l-38 -44 -139 119 c-76 65
-149 129 -163 141 -14 13 -28 23 -31 23 -3 0 -25 -22 -48 -50 -23 -27 -48 -50
-54 -50 -7 0 -27 12 -45 28 l-32 27 136 153 c74 83 141 152 148 152 7 0 25
-14 41 -30z m6806 -101 l32 -41 -34 -26 c-18 -15 -70 -58 -114 -97 -45 -38
-104 -90 -132 -114 l-52 -44 72 -81 c40 -44 79 -86 87 -93 13 -10 11 -16 -14
-42 -33 -35 -27 -38 49 -21 152 33 255 54 355 75 128 26 131 25 165 -40 l19
-34 -44 -63 c-24 -35 -71 -100 -105 -145 -33 -46 -87 -121 -120 -167 -33 -47
-63 -85 -67 -85 -6 -1 -68 85 -68 95 0 3 16 26 35 51 19 25 35 49 35 54 0 4
-23 42 -51 84 -56 86 -42 80 -154 59 -26 -5 -32 -1 -49 29 -10 20 -37 55 -60
79 -22 24 -68 74 -101 113 -33 38 -77 88 -98 111 l-38 42 58 50 c238 207 340
291 350 292 6 0 26 -18 44 -41z m-3693 -232 l32 -33 -15 -444 c-8 -245 -19
-575 -25 -735 -6 -159 -17 -504 -25 -765 -8 -261 -19 -581 -24 -710 -6 -129
-13 -345 -17 -480 -4 -164 -10 -247 -18 -252 -6 -4 -42 -8 -80 -8 l-69 0 6 98
c4 53 13 255 22 447 8 193 20 445 25 560 6 116 17 368 25 560 8 193 17 388 20
435 3 47 12 238 20 425 33 786 37 847 58 893 10 23 22 42 26 42 4 0 21 -15 39
-33z m461 -5 c24 -36 25 -46 42 -407 10 -203 25 -534 33 -735 9 -201 21 -446
26 -545 6 -99 15 -286 20 -415 5 -129 14 -323 19 -430 6 -107 15 -312 21 -455
5 -143 13 -302 16 -353 l6 -94 -83 7 c-46 4 -87 10 -90 14 -4 3 -12 233 -18
511 -6 278 -16 629 -21 780 -5 151 -15 491 -21 755 -6 264 -16 676 -23 915
l-14 435 26 28 c14 15 28 27 31 27 3 0 17 -17 30 -38z m-3847 -80 c47 -37 118
-92 158 -122 39 -30 83 -64 97 -75 15 -11 37 -29 50 -40 l23 -20 -37 -43 -38
-42 -85 66 c-47 36 -98 75 -113 87 -16 12 -73 57 -128 101 l-99 78 32 38 c18
21 38 39 43 39 6 0 49 -30 97 -67z m-287 -371 c22 -14 45 -30 50 -34 6 -4 39
-26 75 -49 36 -22 85 -53 109 -69 24 -16 47 -27 51 -24 3 2 35 49 71 104 35
55 67 100 71 101 10 0 77 -44 78 -52 0 -8 -157 -250 -187 -287 l-19 -24 -130
85 c-71 46 -169 111 -219 142 -49 32 -91 60 -93 61 -4 4 25 52 46 77 16 19 23
17 97 -31z m8006 -208 c12 -28 17 -53 12 -60 -4 -6 -25 -35 -45 -65 -21 -29
-54 -75 -73 -103 -68 -95 -88 -125 -84 -129 2 -2 22 4 44 14 176 82 244 108
253 97 33 -41 45 -97 21 -97 -4 0 -32 -11 -61 -24 -29 -13 -80 -35 -113 -49
-33 -14 -94 -41 -135 -60 -94 -44 -150 -67 -162 -67 -5 0 -18 21 -30 47 -20
45 -20 47 -2 77 9 17 20 33 23 36 3 3 15 19 27 35 11 17 46 67 78 113 32 46
56 85 54 88 -3 2 -67 -23 -143 -56 -76 -33 -139 -59 -140 -58 -2 2 -12 22 -23
45 -17 32 -19 43 -9 51 7 5 91 44 187 87 96 42 198 87 225 100 28 13 56 24 63
24 7 1 22 -20 33 -46z m-7973 -87 c118 -60 179 -152 169 -253 -12 -115 -109
-226 -211 -238 -106 -14 -228 37 -299 124 -65 80 -72 164 -22 258 34 66 55 88
111 119 43 23 58 25 124 22 56 -4 89 -12 128 -32z m3451 -53 c-2 -92 -7 -98
-94 -142 -44 -22 -108 -60 -142 -84 l-63 -44 38 -11 c31 -10 190 -32 229 -32
14 0 16 -147 3 -275 -6 -49 -12 -166 -14 -260 -10 -346 -17 -514 -26 -665 -6
-85 -17 -330 -26 -545 -8 -214 -19 -446 -24 -515 -4 -69 -5 -128 -1 -132 3 -4
47 -3 96 2 344 36 471 35 805 -4 63 -8 119 -12 124 -9 4 3 6 29 3 57 -4 28
-13 213 -22 411 -8 198 -19 434 -25 525 -5 91 -12 237 -15 325 -3 88 -8 216
-11 285 -3 69 -7 175 -9 235 -3 61 -9 174 -16 252 -9 113 -9 146 1 158 7 8 10
26 8 40 -3 14 -1 25 4 25 25 0 134 -33 152 -46 11 -8 28 -14 38 -14 10 0 18
-4 18 -10 0 -5 6 -10 12 -10 13 0 120 -51 128 -61 3 -3 16 -12 30 -19 14 -7
42 -26 63 -42 20 -16 37 -26 37 -22 0 4 6 0 13 -10 7 -9 20 -18 29 -19 9 -2
24 -9 34 -17 49 -41 -101 177 -193 279 l-48 54 -75 -13 c-41 -6 -82 -16 -92
-20 -9 -5 -50 -12 -92 -16 l-76 -7 0 46 0 46 58 6 c53 6 136 21 172 32 20 6
-37 52 -154 124 l-91 56 -3 62 c-3 60 -2 61 23 61 41 0 214 -46 338 -90 228
-82 478 -224 657 -374 69 -58 266 -262 313 -323 394 -515 511 -1153 327 -1783
-12 -41 -26 -79 -31 -84 -5 -6 -9 -16 -9 -24 0 -23 -112 -249 -169 -340 -84
-137 -159 -230 -291 -363 -108 -109 -249 -226 -311 -260 -17 -9 -19 -6 -19 34
0 43 1 45 83 107 81 63 257 227 257 240 0 11 -104 46 -190 65 -41 9 -86 21
-100 25 -14 5 -43 12 -66 15 l-41 6 -43 -65 c-24 -36 -47 -66 -52 -66 -4 0 -8
-5 -8 -11 0 -14 -54 -82 -124 -156 -46 -50 -52 -53 -97 -53 -26 0 -51 5 -54
10 -3 6 15 32 41 60 25 27 54 60 62 72 15 21 15 22 -1 10 -9 -8 -20 -11 -25
-8 -11 6 -25 220 -26 395 l-1 124 -70 14 c-38 7 -92 17 -120 23 -212 43 -398
60 -645 60 -264 0 -477 -21 -705 -69 -27 -6 -75 -14 -105 -19 l-55 -7 -2 -264
c-2 -251 -8 -308 -31 -276 -11 16 -62 46 -62 37 0 -5 29 -40 65 -78 35 -38 64
-74 65 -80 0 -18 -82 -25 -107 -9 -28 19 -131 146 -188 232 -78 117 -58 108
-177 88 -57 -10 -121 -23 -143 -30 -22 -7 -61 -18 -87 -25 -27 -7 -48 -16 -48
-20 0 -14 185 -183 266 -244 43 -33 85 -66 92 -75 15 -18 16 -67 2 -76 -8 -5
-131 73 -150 95 -3 3 -39 33 -80 67 -288 234 -522 597 -634 985 -87 300 -91
720 -10 1008 106 372 294 687 562 940 306 291 644 464 1097 563 43 10 45 8 44
-40z m4676 -433 c78 -35 114 -85 138 -190 13 -54 13 -70 1 -110 -15 -50 -45
-90 -81 -109 -31 -16 -30 -16 -52 35 -20 44 -20 47 -3 70 9 13 20 24 25 24 14
0 7 89 -10 125 -58 121 -333 49 -333 -87 0 -34 38 -112 63 -127 9 -6 29 -8 43
-5 20 5 24 11 20 28 -3 11 -9 38 -12 58 -6 35 -5 37 32 47 52 15 51 15 64 -21
12 -35 50 -176 50 -188 0 -4 -10 -10 -22 -13 -13 -3 -61 -15 -108 -27 l-85
-21 -51 54 c-64 69 -86 115 -92 197 -6 87 10 142 56 186 97 95 245 125 357 74z
m-8447 -47 c97 -46 120 -110 87 -248 -8 -33 -11 -63 -7 -66 4 -3 26 -11 50
-18 105 -28 127 -34 130 -37 2 -1 -4 -28 -13 -59 -13 -46 -19 -55 -33 -50 -9
4 -124 36 -256 70 -131 35 -240 66 -243 69 -13 12 58 259 84 294 44 58 131 78
201 45z m4425 -2303 c183 -16 167 5 167 -221 l0 -191 -47 6 c-108 13 -572 18
-686 7 -64 -6 -123 -14 -132 -17 -13 -5 -15 18 -15 195 0 111 1 201 3 202 1 0
63 7 137 14 171 16 416 18 573 5z m367 -50 c36 -6 82 -16 103 -21 l37 -10 0
-194 c0 -162 -2 -195 -14 -195 -8 0 -60 9 -116 20 -56 11 -110 20 -121 20 -18
0 -19 9 -19 200 l0 201 33 -5 c17 -3 61 -11 97 -16z m-1152 -182 l-3 -193 -30
-3 c-16 -2 -74 -12 -127 -22 -53 -11 -99 -20 -102 -20 -3 0 -6 87 -6 194 0
193 0 195 23 202 40 14 151 32 200 33 l47 1 -2 -192z m676 -234 c13 -5 16 -24
16 -105 l0 -99 -177 2 -178 3 -3 80 c-5 135 -18 125 167 125 88 0 166 -3 175
-6z m-411 -16 c-2 -5 -3 -48 -3 -98 l0 -90 -45 0 -45 0 0 93 c0 52 3 97 7 101
9 9 89 3 86 -6z m610 -7 c4 -4 7 -46 5 -92 l-3 -84 -52 -3 -53 -3 0 102 0 101
48 -7 c26 -4 51 -10 55 -14z m-796 -85 c7 -6 15 -30 19 -53 8 -49 -9 -64 -51
-45 -14 6 -74 12 -134 13 -105 1 -112 2 -164 34 -30 18 -65 36 -78 41 -21 7
-18 9 26 20 62 15 364 8 382 -10z m1228 10 c56 -11 58 -13 30 -20 -16 -4 -32
-11 -35 -14 -3 -4 -26 -18 -53 -31 -37 -19 -68 -25 -145 -29 -53 -2 -105 -9
-116 -14 -30 -16 -50 12 -41 60 6 35 11 42 37 47 16 4 44 4 61 2 18 -3 59 -2
92 2 86 12 103 12 170 -3z m-1565 -435 l0 -248 -42 -11 c-92 -23 -278 -62
-298 -62 -20 0 -20 5 -20 258 l0 258 118 18 c64 9 140 21 167 25 28 5 56 9 63
10 9 1 12 -55 12 -248z m1480 4 l0 -245 -700 0 -700 0 0 245 0 245 700 0 700
0 0 -245z m232 230 c62 -9 137 -20 166 -26 l52 -10 0 -254 c0 -140 -4 -256 -8
-259 -5 -3 -47 3 -93 14 -46 10 -128 28 -181 40 l-98 21 0 245 0 244 25 0 c13
0 75 -7 137 -15z m-1317 -569 c50 -9 137 -20 195 -25 96 -8 87 -8 -116 -10
-271 -1 -555 9 -548 21 3 4 17 8 32 8 15 1 41 7 57 15 39 19 253 14 380 -9z
m1208 2 c37 -8 69 -17 72 -20 8 -7 -420 -18 -654 -17 -189 2 -198 2 -101 10
89 6 279 32 330 44 38 9 292 -3 353 -17z m805 -125 c-3 -17 -88 -18 -1613 -18
-1525 0 -1610 1 -1613 18 -3 16 79 17 1613 17 1534 0 1616 -1 1613 -17z m190
-145 l3 -48 -1835 0 -1836 0 0 50 0 50 1833 -2 1832 -3 3 -47z m367 -143 c0
-20 -8 -20 -2197 -23 l-2198 -2 0 25 0 25 2198 -2 c2189 -3 2197 -3 2197 -23z
m423 -117 c3 -17 -126 -18 -2612 -18 -2250 0 -2616 2 -2616 14 0 8 6 17 13 19
6 3 1182 5 2612 4 2467 -2 2600 -3 2603 -19z m277 -113 c0 -20 -8 -20 -2902
-23 l-2903 -2 0 25 0 25 2903 -2 c2894 -3 2902 -3 2902 -23z m303 -127 l-3
-33 -3195 0 -3195 0 -3 33 -3 32 3201 0 3201 0 -3 -32z m-2552 -128 c-2 -8 -7
-27 -10 -42 -6 -27 -8 -28 -79 -29 -39 0 -108 -6 -152 -13 -189 -31 -271 -47
-285 -55 -30 -17 -115 -22 -160 -11 -148 38 -384 78 -500 85 -88 6 -100 12
-100 55 l0 25 645 0 c568 0 644 -2 641 -15z m-1116 -130 c161 -23 383 -66 418
-80 21 -9 22 -14 22 -155 0 -92 -4 -145 -10 -145 -6 0 -63 15 -128 34 -267 77
-413 99 -667 100 -352 2 -557 -51 -980 -251 -196 -93 -320 -143 -357 -143 -16
0 -18 11 -18 129 l0 128 58 18 c61 20 141 55 292 129 330 163 549 233 815 260
96 10 417 -4 555 -24z m1680 -8 c208 -42 311 -80 630 -234 107 -52 230 -107
273 -122 l77 -28 0 -123 c0 -68 -3 -126 -7 -128 -25 -14 -156 37 -413 161
-351 170 -595 231 -920 232 -150 0 -345 -19 -459 -46 -111 -26 -254 -65 -294
-80 -20 -8 -42 -14 -47 -14 -6 0 -10 58 -10 148 l0 149 41 12 c66 20 232 51
409 76 219 32 554 30 720 -3z m-1805 -302 c115 -13 292 -51 421 -89 168 -50
154 -39 154 -122 0 -64 -2 -70 -17 -64 -59 25 -286 99 -342 111 -165 37 -226
45 -371 51 -311 12 -458 -27 -850 -225 -345 -175 -465 -215 -617 -210 l-81 3
47 80 c47 80 47 80 96 87 73 10 118 28 350 138 301 144 508 213 715 239 95 12
391 12 495 1z m1616 0 c184 -15 400 -72 574 -150 11 -5 45 -20 75 -33 30 -13
111 -52 180 -85 147 -72 241 -108 304 -117 44 -7 48 -10 92 -83 32 -53 42 -78
35 -85 -19 -19 -224 8 -325 43 -87 30 -139 55 -420 199 -239 122 -392 171
-591 191 -239 24 -525 -22 -829 -133 -39 -14 -73 -24 -78 -21 -9 6 -9 78 1
112 6 25 52 44 196 83 276 75 527 101 786 79z"/>
<path d="M7283 9348 c-12 -29 -19 -56 -17 -60 6 -9 129 -48 153 -48 32 0 52
28 49 67 -3 33 -7 37 -63 58 -109 40 -100 42 -122 -17z"/>
<path d="M8720 8439 c-36 -21 -66 -42 -67 -47 -2 -7 87 -76 91 -70 2 1 12 30
23 63 12 33 24 68 28 78 10 24 -1 21 -75 -24z"/>
<path d="M9413 7662 c-40 -9 -73 -21 -73 -27 0 -7 14 -31 31 -54 l30 -42 50
65 c49 65 56 77 42 75 -5 -1 -41 -9 -80 -17z"/>
<path d="M1654 7166 c-34 -34 -39 -54 -35 -121 4 -61 122 -135 215 -135 102 0
161 130 97 212 -32 40 -122 78 -186 78 -51 0 -60 -3 -91 -34z"/>
<path d="M5090 7139 c-142 -44 -288 -104 -278 -114 2 -3 32 -13 65 -23 l61
-19 79 58 c43 32 104 73 135 89 94 50 77 53 -62 9z"/>
<path d="M6290 7156 c0 -2 19 -16 43 -31 23 -16 72 -52 108 -81 l66 -53 59 15
c33 9 63 19 67 24 10 9 -112 62 -237 102 -86 27 -106 32 -106 24z"/>
<path d="M4665 6957 c-62 -34 -183 -116 -260 -176 -103 -80 -271 -249 -260
-260 17 -15 144 -51 239 -66 131 -21 141 -20 156 15 7 17 16 30 21 30 5 0 9 6
9 13 0 29 154 245 248 347 47 51 49 56 25 63 -10 3 -45 17 -78 31 -33 14 -60
26 -60 26 0 -1 -18 -11 -40 -23z"/>
<path d="M6716 6971 c-3 -4 -27 -14 -53 -21 -84 -23 -87 -29 -39 -81 75 -84
176 -220 176 -237 0 -6 4 -12 8 -14 5 -1 31 -41 57 -87 l48 -83 65 7 c106 11
332 69 332 84 0 14 -174 180 -260 247 -179 140 -315 216 -334 185z"/>
<path d="M4895 6814 c-62 -70 -101 -118 -122 -150 -7 -11 -24 -36 -38 -57 -14
-21 -25 -40 -25 -42 0 -2 14 3 30 11 17 9 30 19 30 23 0 4 16 13 35 21 19 8
35 16 35 20 0 3 17 14 38 25 20 11 39 23 42 26 9 12 109 59 125 59 8 0 15 5
15 10 0 6 6 10 13 10 7 0 28 9 48 19 20 11 49 21 65 23 16 2 37 8 48 14 14 9
4 12 -52 17 -39 3 -79 10 -89 15 -10 5 -45 13 -78 17 l-60 6 -60 -67z"/>
<path d="M7290 6440 c-41 -16 -106 -34 -145 -41 -38 -6 -74 -16 -79 -21 -6 -4
-21 -8 -35 -8 -15 0 -36 -3 -48 -6 -22 -6 -22 -7 -6 -38 9 -17 33 -51 54 -75
22 -24 39 -48 39 -53 0 -5 17 -32 38 -61 21 -29 55 -87 76 -129 30 -61 43 -78
60 -78 78 0 339 61 386 90 12 8 9 21 -23 85 -62 126 -219 367 -236 364 -3 -1
-40 -14 -81 -29z"/>
<path d="M4048 6418 c-107 -142 -236 -374 -219 -391 13 -13 211 -63 304 -77
90 -13 87 -15 131 75 16 33 40 74 53 92 13 17 23 35 23 40 0 8 56 83 94 126 9
9 13 17 9 17 -5 0 0 5 10 11 21 12 22 29 2 29 -8 0 -15 4 -15 9 0 5 -27 12
-60 16 -33 4 -63 11 -66 16 -3 5 -16 9 -29 9 -13 0 -63 14 -112 30 -48 17 -91
30 -94 30 -4 0 -18 -15 -31 -32z"/>
<path d="M3747 5833 c-46 -148 -81 -343 -64 -360 13 -12 179 -48 305 -65 88
-13 94 -9 103 70 20 161 38 241 62 280 5 6 5 17 2 22 -3 6 -1 10 4 10 6 0 11
9 11 20 0 11 6 20 13 20 22 0 -40 27 -74 32 -44 7 -188 44 -263 69 -33 10 -60
19 -61 19 -1 0 -18 -53 -38 -117z"/>
<path d="M7625 5929 c-52 -20 -171 -55 -240 -70 -22 -5 -61 -15 -87 -22 -44
-12 -47 -14 -35 -32 21 -31 45 -104 57 -170 14 -76 16 -87 23 -105 3 -8 7 -41
10 -72 2 -32 6 -60 9 -63 12 -12 388 52 421 72 23 14 -38 308 -92 439 l-16 42
-50 -19z"/>
<path d="M3663 5233 c5 -144 31 -333 57 -418 48 -154 63 -201 69 -207 3 -3 24
0 46 8 22 8 85 25 140 39 210 54 200 51 197 71 -2 10 -8 21 -13 22 -5 2 -9 12
-9 22 0 10 -5 31 -12 47 -6 15 -13 35 -15 43 -12 57 -24 135 -29 190 -4 36
-10 70 -14 75 -5 6 -7 44 -6 85 1 41 -3 80 -9 86 -6 6 -31 14 -55 17 -61 8
-239 45 -270 56 -14 5 -38 12 -54 16 l-29 6 6 -158z"/>
<path d="M7740 5371 c-14 -8 -167 -42 -280 -62 -102 -18 -95 -11 -94 -97 1
-42 -2 -81 -6 -87 -4 -5 -10 -37 -13 -70 -7 -70 -10 -86 -19 -100 -3 -5 -9
-35 -13 -65 -6 -50 -21 -95 -46 -142 -13 -25 -13 -25 34 -36 96 -23 197 -52
280 -80 l88 -30 11 27 c22 56 67 209 78 266 7 33 16 80 21 105 5 25 12 120 15
213 l7 167 -24 0 c-13 0 -31 -4 -39 -9z"/>
<path d="M7222 4612 c-8 -5 -14 -13 -14 -18 0 -18 -50 -114 -59 -114 -5 0 -8
-3 -7 -7 2 -14 -15 -47 -44 -84 -15 -20 -28 -41 -28 -47 0 -6 -21 -33 -47 -61
-57 -60 -64 -81 -28 -81 14 0 25 -4 25 -9 0 -4 19 -11 43 -14 23 -4 96 -24
162 -47 66 -22 126 -40 133 -40 18 0 40 26 116 140 64 95 172 288 165 295 -9
8 -135 47 -211 64 -108 25 -190 34 -206 23z"/>
<path d="M4080 4590 c-94 -17 -248 -54 -256 -63 -4 -3 51 -113 99 -197 35 -62
154 -232 170 -242 6 -3 40 4 76 16 96 33 216 66 267 73 29 4 44 11 44 20 0 15
-30 51 -30 36 0 -4 -10 8 -22 27 -13 19 -32 46 -44 59 -12 13 -28 35 -35 50
-8 14 -24 40 -37 58 -13 18 -21 37 -17 43 3 5 2 10 -3 10 -6 0 -25 29 -43 65
-20 40 -38 65 -48 64 -9 0 -63 -9 -121 -19z"/>
<path d="M4756 3957 c3 -10 9 -15 12 -12 3 3 0 11 -7 18 -10 9 -11 8 -5 -6z"/>
<path d="M1474 6640 c-22 -9 -60 -109 -51 -134 5 -12 77 -36 110 -36 16 0 37
63 37 113 0 54 -42 79 -96 57z"/>
</g>
</svg>
